<svg preserveAspectRatio="none" width="100%" height="100%" overflow="visible" style="display: block;" viewBox="0 0 26 29" fill="none" xmlns="http://www.w3.org/2000/svg">
<path id="Vector" fill-rule="evenodd" clip-rule="evenodd" d="M7.84803 0.470137C8.14074 0.938474 7.99837 1.55542 7.53003 1.84813L2.19666 5.18147C1.72833 5.47418 1.11138 5.3318 0.818667 4.86346C0.525958 4.39513 0.668333 3.77818 1.13667 3.48547L6.47003 0.152134C6.93837 -0.140575 7.55532 0.00179982 7.84803 0.470137ZM18.152 0.470135C18.4447 0.00179839 19.0617 -0.140575 19.53 0.152136L24.8633 3.48547C25.3317 3.77818 25.474 4.39513 25.1813 4.86347C24.8886 5.3318 24.2717 5.47418 23.8033 5.18147L18.47 1.84813C18.0017 1.55542 17.8593 0.938471 18.152 0.470135ZM13 4.6668C6.92487 4.6668 2 9.59167 2 15.6668C2 21.7419 6.92487 26.6668 13 26.6668C19.0751 26.6668 24 21.7419 24 15.6668C24 9.59167 19.0751 4.6668 13 4.6668ZM0 15.6668C0 8.4871 5.8203 2.6668 13 2.6668C20.1797 2.6668 26 8.4871 26 15.6668C26 22.8465 20.1797 28.6668 13 28.6668C5.8203 28.6668 0 22.8465 0 15.6668ZM13 9.33347C13.5523 9.33347 14 9.78118 14 10.3335V15.2526L17.0404 18.293C17.431 18.6836 17.431 19.3167 17.0404 19.7072C16.6499 20.0978 16.0168 20.0978 15.6262 19.7072L12.2929 16.3739C12.1054 16.1864 12 15.932 12 15.6668V10.3335C12 9.78118 12.4477 9.33347 13 9.33347Z" fill="var(--fill-0, #4D4D4D)"/>
</svg>
