<svg preserveAspectRatio="none" width="100%" height="100%" overflow="visible" style="display: block;" viewBox="0 0 28 20" fill="none" xmlns="http://www.w3.org/2000/svg">
<path id="Vector" fill-rule="evenodd" clip-rule="evenodd" d="M17.0328 0.366117C17.5209 -0.122039 18.3124 -0.122039 18.8005 0.366117L27.1339 8.69945C27.622 9.18761 27.622 9.97906 27.1339 10.4672L18.8005 18.8005C18.3124 19.2887 17.5209 19.2887 17.0328 18.8005C16.5446 18.3124 16.5446 17.5209 17.0328 17.0328L23.2322 10.8333H9.58333C8.39447 10.8333 6.58336 11.2003 5.10538 12.2644C3.69114 13.2827 2.5 14.9907 2.5 17.9167C2.5 18.607 1.94036 19.1667 1.25 19.1667C0.559644 19.1667 0 18.607 0 17.9167C-1.98682e-07 14.1759 1.58664 11.7173 3.64462 10.2356C5.63886 8.79973 7.99441 8.33333 9.58333 8.33333H23.2322L17.0328 2.13388C16.5446 1.64573 16.5446 0.854272 17.0328 0.366117Z" fill="var(--fill-0, #17BADF)"/>
</svg>
