<svg preserveAspectRatio="none" width="100%" height="100%" overflow="visible" style="display: block;" viewBox="0 0 36 36" fill="none" xmlns="http://www.w3.org/2000/svg">
<path id="Vector" fill-rule="evenodd" clip-rule="evenodd" d="M17.999 2.83371e-06H17.8344C16.7263 -5.64642e-05 15.7715 -0.000107549 15.0069 0.102684C14.1875 0.212849 13.4021 0.461281 12.765 1.09836C12.1279 1.73544 11.8795 2.52087 11.7693 3.34027C11.6665 4.10484 11.6666 5.05962 11.6667 6.16772L11.6667 10.2134C11.2757 10.0752 10.855 10 10.4167 10H5.41667C3.3456 10 1.66667 11.6789 1.66667 13.75V33.3333H1.25C0.559644 33.3333 0 33.893 0 34.5833C0 35.2737 0.559644 35.8333 1.25 35.8333H34.5833C35.2737 35.8333 35.8333 35.2737 35.8333 34.5833C35.8333 33.893 35.2737 33.3333 34.5833 33.3333H34.1667V22.0833C34.1667 20.0123 32.4877 18.3333 30.4167 18.3333H25.4167C24.9784 18.3333 24.5576 18.4085 24.1667 18.5467L24.1667 6.16773C24.1667 5.05962 24.1668 4.10485 24.064 3.34027C23.9538 2.52087 23.7054 1.73544 23.0683 1.09836C22.4312 0.461281 21.6458 0.212849 20.8264 0.102684C20.0619 -0.000107555 19.107 -5.64642e-05 17.999 2.83371e-06ZM31.6667 33.3333V22.0833C31.6667 21.393 31.107 20.8333 30.4167 20.8333H25.4167C24.7263 20.8333 24.1667 21.393 24.1667 22.0833V33.3333H31.6667ZM21.6667 33.3333V6.25001C21.6667 5.03616 21.664 4.25152 21.5863 3.67339C21.5134 3.13121 21.3957 2.96128 21.3006 2.86612C21.2054 2.77097 21.0355 2.65328 20.4933 2.58039C19.9152 2.50266 19.1305 2.50001 17.9167 2.50001C16.7028 2.50001 15.9182 2.50266 15.34 2.58039C14.7979 2.65328 14.6279 2.77097 14.5328 2.86613C14.4376 2.96128 14.3199 3.13121 14.247 3.67339C14.1693 4.25152 14.1667 5.03616 14.1667 6.25001V33.3333H21.6667ZM11.6667 33.3333V13.75C11.6667 13.0597 11.107 12.5 10.4167 12.5H5.41667C4.72631 12.5 4.16667 13.0597 4.16667 13.75V33.3333H11.6667Z" fill="var(--fill-0, #17BADF)"/>
</svg>
