<svg preserveAspectRatio="none" width="100%" height="100%" overflow="visible" style="display: block;" viewBox="0 0 30 36" fill="none" xmlns="http://www.w3.org/2000/svg">
<path id="Vector" fill-rule="evenodd" clip-rule="evenodd" d="M0 7.91667C0 5.34718 2.05049 3.35746 4.59623 2.08459C7.21673 0.774334 10.7495 0 14.5833 0C18.4172 0 21.9499 0.774334 24.5704 2.08459C27.1162 3.35746 29.1667 5.34718 29.1667 7.91667V27.9167C29.1667 30.4862 27.1162 32.4759 24.5704 33.7487C21.9499 35.059 18.4172 35.8333 14.5833 35.8333C10.7495 35.8333 7.21673 35.059 4.59623 33.7487C2.05049 32.4759 0 30.4862 0 27.9167V7.91667ZM2.5 7.91667C2.5 6.80425 3.43428 5.46064 5.71426 4.32066C7.91947 3.21805 11.0534 2.5 14.5833 2.5C18.1133 2.5 21.2472 3.21805 23.4524 4.32066C25.7324 5.46064 26.6667 6.80425 26.6667 7.91667C26.6667 9.02908 25.7324 10.3727 23.4524 11.5127C21.2472 12.6153 18.1133 13.3333 14.5833 13.3333C11.0534 13.3333 7.91947 12.6153 5.71426 11.5127C3.43428 10.3727 2.5 9.02908 2.5 7.91667ZM2.5 27.9167C2.5 29.0291 3.43428 30.3727 5.71426 31.5127C7.91947 32.6153 11.0534 33.3333 14.5833 33.3333C18.1133 33.3333 21.2472 32.6153 23.4524 31.5127C25.7324 30.3727 26.6667 29.0291 26.6667 27.9167V22.4287C26.0388 22.9295 25.3264 23.3707 24.5704 23.7487C21.9499 25.059 18.4172 25.8333 14.5833 25.8333C10.7495 25.8333 7.21673 25.059 4.59623 23.7487C3.84023 23.3707 3.12791 22.9295 2.5 22.4287V27.9167ZM26.6667 12.4287V17.9167C26.6667 19.0291 25.7324 20.3727 23.4524 21.5127C21.2472 22.6153 18.1133 23.3333 14.5833 23.3333C11.0534 23.3333 7.91947 22.6153 5.71426 21.5127C3.43428 20.3727 2.5 19.0291 2.5 17.9167V12.4287C3.12791 12.9295 3.84023 13.3707 4.59623 13.7487C7.21673 15.059 10.7495 15.8333 14.5833 15.8333C18.4172 15.8333 21.9499 15.059 24.5704 13.7487C25.3264 13.3707 26.0388 12.9295 26.6667 12.4287Z" fill="var(--fill-0, #17BADF)"/>
</svg>
