<svg preserveAspectRatio="none" width="100%" height="100%" overflow="visible" style="display: block;" viewBox="0 0 28 29" fill="none" xmlns="http://www.w3.org/2000/svg">
<path id="Vector" fill-rule="evenodd" clip-rule="evenodd" d="M11.5914 4.28821e-07H14.4086C16.8589 -2.0711e-05 18.7997 -3.75509e-05 20.3187 0.20418C21.8819 0.414351 23.1472 0.857174 24.145 1.85499C24.5355 2.24552 24.5355 2.87868 24.145 3.26921C23.7545 3.65973 23.1213 3.65973 22.7308 3.2692C22.1665 2.70493 21.3937 2.3667 20.0522 2.18635C18.682 2.00212 16.8758 2 14.3333 2H11.6667C9.12424 2 7.31802 2.00212 5.9478 2.18635C4.60635 2.3667 3.83348 2.70493 3.2692 3.2692C2.70493 3.83348 2.3667 4.60635 2.18635 5.9478C2.00212 7.31802 2 9.12424 2 11.6667V17C2 19.5424 2.00212 21.3486 2.18635 22.7189C2.3667 24.0603 2.70493 24.8332 3.26921 25.3975C3.83348 25.9617 4.60635 26.3 5.9478 26.4803C7.31802 26.6645 9.12424 26.6667 11.6667 26.6667H14.3333C16.8758 26.6667 18.682 26.6645 20.0522 26.4803C21.3937 26.3 22.1665 25.9617 22.7308 25.3975C23.6587 24.4695 23.9397 23.0278 23.9885 19.6522C23.9965 19.1 24.4506 18.6588 25.0029 18.6668C25.5551 18.6748 25.9963 19.1289 25.9883 19.6811C25.9415 22.9178 25.732 25.2247 24.145 26.8117C23.1472 27.8095 21.8819 28.2523 20.3187 28.4625C18.7997 28.6667 16.8589 28.6667 14.4085 28.6667H11.5915C9.1411 28.6667 7.20026 28.6667 5.6813 28.4625C4.11807 28.2523 2.85281 27.8095 1.85499 26.8117C0.857174 25.8139 0.414351 24.5486 0.20418 22.9854C-3.75509e-05 21.4664 -2.0711e-05 19.5256 4.28821e-07 17.0752V11.5914C-2.0711e-05 9.1411 -3.75509e-05 7.20026 0.20418 5.6813C0.414351 4.11807 0.857174 2.85281 1.85499 1.85499C2.85281 0.857174 4.11807 0.414351 5.6813 0.20418C7.20026 -3.75509e-05 9.1411 -2.0711e-05 11.5914 4.28821e-07ZM21.1509 7.72741C22.5652 6.31309 24.8583 6.31309 26.2726 7.72741C27.6869 9.14174 27.6869 11.4348 26.2726 12.8491L19.9322 19.1896C19.5872 19.5346 19.3539 19.768 19.0925 19.9719C18.785 20.2118 18.4522 20.4174 18.1002 20.5852C17.801 20.7278 17.4878 20.8321 17.025 20.9863L14.2468 21.9124C13.6334 22.1168 12.9572 21.9572 12.5 21.5C12.0428 21.0428 11.8832 20.3666 12.0876 19.7532L12.995 17.031C13.0013 17.0121 13.0075 16.9935 13.0137 16.9751C13.1679 16.5122 13.2722 16.1991 13.4148 15.8998C13.5826 15.5478 13.7882 15.215 14.0281 14.9075C14.232 14.6462 14.4654 14.4128 14.8104 14.0679C14.8241 14.0542 14.838 14.0403 14.8521 14.0262L21.1509 7.72741ZM24.8584 9.14163C24.2251 8.50835 23.1983 8.50835 22.5651 9.14163L22.3227 9.38401C22.3358 9.42865 22.3509 9.47613 22.3682 9.52603C22.4937 9.88754 22.7317 10.3657 23.183 10.817C23.6343 11.2683 24.1125 11.5063 24.474 11.6318C24.5239 11.6491 24.5714 11.6642 24.616 11.6773L24.8584 11.4349C25.4917 10.8017 25.4917 9.77491 24.8584 9.14163ZM23.0886 13.2047C22.6647 12.9821 22.2071 12.6695 21.7688 12.2312C21.3305 11.7929 21.0179 11.3353 20.7953 10.9114L16.2663 15.4404C15.8649 15.8418 15.724 15.9851 15.6051 16.1376C15.4546 16.3305 15.3256 16.5393 15.2203 16.7602C15.1371 16.9348 15.0719 17.1249 14.8924 17.6634L14.3587 19.2646L14.7354 19.6413L16.3366 19.1076C16.8752 18.9281 17.0652 18.8629 17.2398 18.7797C17.4607 18.6744 17.6695 18.5454 17.8624 18.3949C18.0149 18.276 18.1582 18.1351 18.5596 17.7337L23.0886 13.2047ZM6.66667 10.3333C6.66667 9.78105 7.11438 9.33333 7.66667 9.33333H16.3333C16.8856 9.33333 17.3333 9.78105 17.3333 10.3333C17.3333 10.8856 16.8856 11.3333 16.3333 11.3333H7.66667C7.11438 11.3333 6.66667 10.8856 6.66667 10.3333ZM6.66667 15.6667C6.66667 15.1144 7.11438 14.6667 7.66667 14.6667H11C11.5523 14.6667 12 15.1144 12 15.6667C12 16.219 11.5523 16.6667 11 16.6667H7.66667C7.11438 16.6667 6.66667 16.219 6.66667 15.6667ZM6.66667 21C6.66667 20.4477 7.11438 20 7.66667 20H9.66667C10.219 20 10.6667 20.4477 10.6667 21C10.6667 21.5523 10.219 22 9.66667 22H7.66667C7.11438 22 6.66667 21.5523 6.66667 21Z" fill="var(--fill-0, #4D4D4D)"/>
</svg>
