<svg preserveAspectRatio="none" width="100%" height="100%" overflow="visible" style="display: block;" viewBox="0 0 36 36" fill="none" xmlns="http://www.w3.org/2000/svg">
<path id="Vector" fill-rule="evenodd" clip-rule="evenodd" d="M17.9167 2.5C13.0842 2.5 9.16667 6.41751 9.16667 11.25C9.16667 16.0825 13.0842 20 17.9167 20C22.7492 20 26.6667 16.0825 26.6667 11.25C26.6667 6.41751 22.7492 2.5 17.9167 2.5ZM6.66667 11.25C6.66667 5.0368 11.7035 0 17.9167 0C24.1299 0 29.1667 5.0368 29.1667 11.25C29.1667 12.2515 29.0358 13.2225 28.7902 14.1467C32.9189 15.8126 35.8333 19.8563 35.8333 24.5833C35.8333 30.7965 30.7965 35.8333 24.5833 35.8333C22.089 35.8333 19.7822 35.0203 17.9168 33.6461C16.051 35.0209 13.7454 35.8333 11.25 35.8333C5.0368 35.8333 0 30.7965 0 24.5833C0 19.8563 2.91446 15.8126 7.04311 14.1467C6.79754 13.2225 6.66667 12.2515 6.66667 11.25ZM7.95156 16.476C4.75347 17.7783 2.5 20.9189 2.5 24.5833C2.5 29.4158 6.41751 33.3333 11.25 33.3333C16.0825 33.3333 20 29.4158 20 24.5833C20 23.8128 19.9007 23.067 19.7146 22.3571C19.1291 22.4511 18.5286 22.5 17.9167 22.5C13.5899 22.5 9.83365 20.0574 7.95156 16.476ZM22.1234 21.6871C22.3692 22.6122 22.5 23.5832 22.5 24.5833C22.5 27.3797 21.4797 29.9379 19.7911 31.9057C21.1677 32.8088 22.8133 33.3333 24.5833 33.3333C29.4158 33.3333 33.3333 29.4158 33.3333 24.5833C33.3333 20.9189 31.0799 17.7783 27.8818 16.476C26.6466 18.8263 24.6043 20.6862 22.1234 21.6871Z" fill="var(--fill-0, #17BADF)"/>
</svg>
