<svg preserveAspectRatio="none" width="100%" height="100%" overflow="visible" style="display: block;" viewBox="0 0 40 40" fill="none" xmlns="http://www.w3.org/2000/svg">
<g id="Icon" clip-path="url(#clip0_0_4)">
<path id="Vector" d="M37.8551 36L20.6637 39.8667C19.7752 40.1333 18.9978 39.9778 18.3315 39.4C17.6652 38.8222 17.332 38.0889 17.332 37.2V33.2L12.2679 28.9333C11.9125 29.8222 11.3128 30.5333 10.4688 31.0667C9.62473 31.6 8.71407 31.8667 7.73679 31.8667C6.40412 31.8667 5.24914 31.4 4.27185 30.4667C3.29456 29.5333 2.76149 28.3556 2.67265 26.9333C1.33998 26.2222 0.495961 25.1556 0.140583 23.7333C-0.214795 22.3111 0.00731634 20.9778 0.806917 19.7333C0.27385 18.9333 0.00731636 18 0.00731636 16.9333C0.00731636 15.4222 0.584805 14.1333 1.73978 13.0667V2.8C1.73978 2 2.00632 1.33333 2.53938 0.8C3.07245 0.266667 3.73878 0 4.53838 0H37.1887C37.9883 0 38.6547 0.266667 39.1877 0.8C39.7208 1.33333 39.9873 2 39.9873 2.8V33.3333C39.9873 33.9556 39.7874 34.5111 39.3876 35C38.9878 35.4889 38.477 35.8222 37.8551 36ZM6.53738 2.4H4.53838C4.27185 2.4 4.13858 2.53333 4.13858 2.8V12C4.93818 11.8222 5.73778 11.8667 6.53738 12.1333V2.4ZM6.93718 14.9333C6.31527 14.4 5.64894 14.1556 4.93818 14.2C4.22743 14.2444 3.62773 14.5111 3.13908 15C2.65044 15.4889 2.40612 16.1333 2.40612 16.9333C2.40612 17.7333 2.67265 18.4 3.20572 18.9333C3.47225 19.1111 3.60552 19.3778 3.60552 19.7333C3.60552 20.0889 3.42783 20.4 3.07245 20.6667L2.93918 20.9333C2.31727 21.6444 2.13958 22.4444 2.40612 23.3333C2.67265 24.2222 3.29456 24.8 4.27185 25.0667C4.53838 25.1556 4.73828 25.3333 4.87155 25.6C5.00482 25.8667 5.07145 26.1333 5.07145 26.4C4.89376 27.2 5.09366 27.9111 5.67115 28.5333C6.24864 29.1556 6.93718 29.4667 7.73679 29.4667C8.53639 29.4667 9.20272 29.1556 9.73579 28.5333C10.2689 27.9111 10.491 27.2 10.4021 26.4C10.4021 26.1333 10.4688 25.8667 10.602 25.6C10.7353 25.3333 10.9352 25.1556 11.2017 25.0667C11.8236 24.8889 12.3123 24.5333 12.6677 24C13.023 23.4667 13.1563 22.8889 13.0675 22.2667C12.9786 21.6444 12.7121 21.0667 12.2679 20.5333C12.0013 20.3556 11.8681 20.0889 11.8681 19.7333C11.8681 19.3778 12.0013 19.1111 12.2679 18.9333C12.8009 18.4 13.0675 17.7556 13.0675 17C13.0675 16.2444 12.8231 15.6 12.3345 15.0667C11.8458 14.5333 11.2239 14.2444 10.4688 14.2C9.71357 14.1556 9.06945 14.4 8.53638 14.9333C8.26985 15.1111 7.98111 15.2 7.67015 15.2C7.3592 15.2 7.11487 15.1111 6.93718 14.9333ZM17.332 2.4H8.93619V12.1333C9.91347 11.7778 10.913 11.7778 11.9347 12.1333C12.9564 12.4889 13.8004 13.0889 14.4668 13.9333C15.1331 14.7778 15.4663 15.7556 15.4663 16.8667C15.4663 17.9778 15.1553 18.9333 14.5334 19.7333C15.333 20.8889 15.5995 22.1333 15.333 23.4667C15.0665 24.8 14.4001 25.8667 13.334 26.6667L17.332 30.1333V2.4ZM32.5244 2.4H24.7949V11.4667C24.7949 11.7333 24.9282 11.8667 25.1947 11.8667H32.1246C32.3911 11.8667 32.5244 11.7333 32.5244 11.4667V2.4ZM37.5885 2.8C37.5885 2.53333 37.4553 2.4 37.1887 2.4H34.7899V11.4667C34.7899 12.2667 34.5234 12.9333 33.9903 13.4667C33.4573 14 32.8353 14.2667 32.1246 14.2667H25.1947C24.484 14.2667 23.8621 14 23.329 13.4667C22.7959 12.9333 22.5294 12.2667 22.5294 11.4667V2.4H19.7308V37.2C19.7308 37.3778 19.7752 37.5111 19.8641 37.6C19.9529 37.6889 20.0417 37.6889 20.1306 37.6L37.322 33.7333C37.4997 33.6444 37.5885 33.5111 37.5885 33.3333V2.8ZM23.5955 30.4C23.329 30.4 23.0847 30.2889 22.8626 30.0667C22.6404 29.8444 22.5294 29.5556 22.5294 29.2V29.0667C22.5294 28.8 22.6404 28.5333 22.8626 28.2667C23.0847 28 23.3512 27.8667 23.6622 27.8667C23.9731 27.8667 24.2396 28 24.4618 28.2667C24.6839 28.5333 24.7949 28.8 24.7949 29.0667V29.2C24.7949 29.5556 24.6839 29.8444 24.4618 30.0667C24.2396 30.2889 23.9509 30.4 23.5955 30.4ZM28.6597 30.4C28.3043 30.4 28.0155 30.2889 27.7934 30.0667C27.5713 29.8444 27.4603 29.5556 27.4603 29.2V29.0667C27.4603 28.8 27.5713 28.5333 27.7934 28.2667C28.0155 28 28.3043 27.8667 28.6597 27.8667C29.015 27.8667 29.3038 28 29.5259 28.2667C29.748 28.5333 29.8591 28.8 29.8591 29.0667V29.2C29.8591 29.5556 29.748 29.8444 29.5259 30.0667C29.3038 30.2889 29.015 30.4 28.6597 30.4ZM33.5905 30.4C33.324 30.4 33.0797 30.2889 32.8576 30.0667C32.6354 29.8444 32.5244 29.5556 32.5244 29.2V29.0667C32.5244 28.8 32.6354 28.5333 32.8576 28.2667C33.0797 28 33.3462 27.8667 33.6572 27.8667C33.9681 27.8667 34.2346 28 34.4568 28.2667C34.6789 28.5333 34.7899 28.8 34.7899 29.0667V29.2C34.7899 29.5556 34.6789 29.8444 34.4568 30.0667C34.2346 30.2889 33.9459 30.4 33.5905 30.4ZM23.5955 24.9333C23.329 24.9333 23.0847 24.8222 22.8626 24.6C22.6404 24.3778 22.5294 24.0889 22.5294 23.7333V23.6C22.5294 23.2444 22.6404 22.9556 22.8626 22.7333C23.0847 22.5111 23.3512 22.4 23.6622 22.4C23.9731 22.4 24.2396 22.5111 24.4618 22.7333C24.6839 22.9556 24.7949 23.2444 24.7949 23.6V23.7333C24.7949 24.0889 24.6839 24.3778 24.4618 24.6C24.2396 24.8222 23.9509 24.9333 23.5955 24.9333ZM28.6597 24.9333C28.3043 24.9333 28.0155 24.8222 27.7934 24.6C27.5713 24.3778 27.4603 24.0889 27.4603 23.7333V23.6C27.4603 23.2444 27.5713 22.9556 27.7934 22.7333C28.0155 22.5111 28.3043 22.4 28.6597 22.4C29.015 22.4 29.3038 22.5111 29.5259 22.7333C29.748 22.9556 29.8591 23.2444 29.8591 23.6V23.7333C29.8591 24.0889 29.748 24.3778 29.5259 24.6C29.3038 24.8222 29.015 24.9333 28.6597 24.9333ZM33.5905 24.9333C33.324 24.9333 33.0797 24.8222 32.8576 24.6C32.6354 24.3778 32.5244 24.0889 32.5244 23.7333V23.6C32.5244 23.2444 32.6354 22.9556 32.8576 22.7333C33.0797 22.5111 33.3462 22.4 33.6572 22.4C33.9681 22.4 34.2346 22.5111 34.4568 22.7333C34.6789 22.9556 34.7899 23.2444 34.7899 23.6V23.7333C34.7899 24.0889 34.6789 24.3778 34.4568 24.6C34.2346 24.8222 33.9459 24.9333 33.5905 24.9333ZM23.5955 19.2C23.329 19.2 23.0847 19.0889 22.8626 18.8667C22.6404 18.6444 22.5294 18.4 22.5294 18.1333V17.8667C22.5294 17.6 22.6404 17.3333 22.8626 17.0667C23.0847 16.8 23.3512 16.6667 23.6622 16.6667C23.9731 16.6667 24.2396 16.8 24.4618 17.0667C24.6839 17.3333 24.7949 17.6 24.7949 17.8667V18.1333C24.7949 18.4 24.6839 18.6444 24.4618 18.8667C24.2396 19.0889 23.9509 19.2 23.5955 19.2ZM28.6597 19.2C28.3043 19.2 28.0155 19.0889 27.7934 18.8667C27.5713 18.6444 27.4603 18.4 27.4603 18.1333V17.8667C27.4603 17.6 27.5713 17.3333 27.7934 17.0667C28.0155 16.8 28.3043 16.6667 28.6597 16.6667C29.015 16.6667 29.3038 16.8 29.5259 17.0667C29.748 17.3333 29.8591 17.6 29.8591 17.8667V18.1333C29.8591 18.4 29.748 18.6444 29.5259 18.8667C29.3038 19.0889 29.015 19.2 28.6597 19.2ZM33.5905 19.2C33.324 19.2 33.0797 19.0889 32.8576 18.8667C32.6354 18.6444 32.5244 18.4 32.5244 18.1333V17.8667C32.5244 17.6 32.6354 17.3333 32.8576 17.0667C33.0797 16.8 33.3462 16.6667 33.6572 16.6667C33.9681 16.6667 34.2346 16.8 34.4568 17.0667C34.6789 17.3333 34.7899 17.6 34.7899 17.8667V18.1333C34.7899 18.4 34.6789 18.6444 34.4568 18.8667C34.2346 19.0889 33.9459 19.2 33.5905 19.2Z" fill="var(--fill-0, #17BADF)"/>
</g>
<defs>
<clipPath id="clip0_0_4">
<rect width="40" height="40" fill="white"/>
</clipPath>
</defs>
</svg>
