<svg preserveAspectRatio="none" width="100%" height="100%" overflow="visible" style="display: block;" viewBox="0 0 40 40" fill="none" xmlns="http://www.w3.org/2000/svg">
<g id="Icon">
<path id="Vector" d="M28.0016 12.1365C27.6463 12.1365 27.4019 12.3142 27.2687 12.6698C27.1354 13.0253 27.202 13.3365 27.4686 13.6031C27.7351 13.8698 28.0461 13.892 28.4014 13.6698C28.7568 13.4476 28.8901 13.2031 28.8012 12.9365C28.7124 12.6698 28.6013 12.4698 28.4681 12.3365C28.3348 12.2031 28.1793 12.1365 28.0016 12.1365ZM23.6038 26.8031H16.4074C16.1409 26.8031 15.941 26.7365 15.8077 26.6031C15.6745 26.4698 15.6078 26.2698 15.6078 26.0031V16.1365C15.6078 15.8698 15.6745 15.6698 15.8077 15.5365C15.941 15.4031 16.1409 15.3365 16.4074 15.3365H23.6038C23.8704 15.3365 24.0703 15.4031 24.2035 15.5365C24.3368 15.6698 24.4034 15.8698 24.4034 16.1365V26.0031C24.4034 26.2698 24.3368 26.4698 24.2035 26.6031C24.0703 26.7365 23.8704 26.8031 23.6038 26.8031ZM17.0738 25.2031H19.206V16.8031H17.0738V25.2031ZM22.9375 16.8031H20.8052V25.2031H22.9375V16.8031ZM39.5958 19.6031L28.8012 26.0031V31.7365C28.8012 32.0031 28.7124 32.2253 28.5347 32.4031L20.5387 38.6698C20.1833 38.8476 19.8279 38.8476 19.4726 38.6698L11.4766 32.4031C11.2989 32.2253 11.21 32.0031 11.21 31.7365V26.0031L0.415425 19.6031C0.148892 19.5142 0.015625 19.292 0.015625 18.9365V14.6698C0.015625 14.4031 0.104469 14.2031 0.282158 14.0698C0.459847 13.9365 0.615325 13.8698 0.748592 13.8698C0.881859 13.8698 1.03734 13.9142 1.21503 14.0031L1.74809 14.2698V2.00313C1.74809 1.82535 1.81473 1.64757 1.94799 1.46979C2.08126 1.29201 2.28116 1.20312 2.54769 1.20312H37.4636C37.7301 1.20312 37.93 1.29201 38.0633 1.46979C38.1965 1.64757 38.2632 1.82535 38.2632 2.00313V14.2698L38.7962 14.0031C38.9739 13.9142 39.1294 13.8698 39.2627 13.8698C39.3959 13.8698 39.5514 13.9365 39.7291 14.0698C39.9068 14.2031 39.9956 14.4031 39.9956 14.6698V18.9365C39.9956 19.292 39.8624 19.5142 39.5958 19.6031ZM20.0056 37.0698L27.202 31.3365V28.8031L20.5387 34.0031C20.1833 34.2698 19.8279 34.2698 19.4726 34.0031L12.8092 28.8031V31.3365L20.0056 37.0698ZM1.61483 18.5365L11.21 24.2698V21.7365L1.61483 16.0031V18.5365ZM3.34729 11.4698H6.67896V6.80313H3.34729V11.4698ZM3.34729 5.33646H7.47856C7.74509 5.33646 7.94499 5.40313 8.07826 5.53646C8.21153 5.66979 8.27816 5.86979 8.27816 6.13646V12.2698C8.27816 12.5365 8.21153 12.7365 8.07826 12.8698C7.94499 13.0031 7.74509 13.0698 7.47856 13.0698H3.34729V15.2031L11.21 19.8698V2.80313H3.34729V5.33646ZM18.1399 2.80313V11.3365H21.8714V2.80313H18.1399ZM36.664 6.80313H33.0658V11.4698H36.664V6.80313ZM36.664 13.0698H32.2662C32.0885 13.0698 31.933 13.0031 31.7997 12.8698C31.6665 12.7365 31.5998 12.5365 31.5998 12.2698V6.13646C31.5998 5.86979 31.6665 5.66979 31.7997 5.53646C31.933 5.40313 32.0885 5.33646 32.2662 5.33646H36.664V2.80313H28.8012V9.46979C28.8012 9.64757 28.7346 9.82535 28.6013 10.0031C28.4681 10.1809 28.2904 10.2698 28.0683 10.2698C27.8462 10.2698 27.6463 10.1809 27.4686 10.0031C27.2909 9.82535 27.202 9.64757 27.202 9.46979V2.80313H23.3373V12.0031C23.3373 12.2698 23.2707 12.4698 23.1374 12.6031C23.0041 12.7365 22.8487 12.8031 22.671 12.8031H17.3403C17.1626 12.8031 17.0071 12.7365 16.8739 12.6031C16.7406 12.4698 16.674 12.2698 16.674 12.0031V2.80313H12.8092V26.8031L20.0056 32.4031L27.202 26.8031V16.5365C27.202 16.2698 27.2909 16.0698 27.4686 15.9365C27.6463 15.8031 27.8462 15.7365 28.0683 15.7365C28.2904 15.7365 28.4681 15.8031 28.6013 15.9365C28.7346 16.0698 28.8012 16.2698 28.8012 16.5365V19.8698L36.664 15.2031V13.0698ZM38.3964 16.0031L28.8012 21.7365V24.2698L38.3964 18.5365V16.0031Z" fill="var(--fill-0, #17BADF)"/>
</g>
</svg>
