<svg preserveAspectRatio="none" width="100%" height="100%" overflow="visible" style="display: block;" viewBox="0 0 40 40" fill="none" xmlns="http://www.w3.org/2000/svg">
<g id="Icon" clip-path="url(#clip0_0_10)">
<path id="Vector" d="M20.1371 12.6661C20.4036 12.6661 20.6035 12.7328 20.7368 12.8661C20.87 12.9995 20.9367 13.1995 20.9367 13.4661V17.0661C20.9367 17.4217 20.8034 17.6661 20.5369 17.7995C20.2703 17.9328 20.0038 17.9328 19.7373 17.7995C19.4707 17.6661 19.3375 17.4217 19.3375 17.0661V13.4661C19.3375 13.1995 19.4263 12.9995 19.604 12.8661C19.7817 12.7328 19.9594 12.6661 20.1371 12.6661ZM20.1371 29.0661C20.4036 29.0661 20.6035 29.1328 20.7368 29.2661C20.87 29.3995 20.9367 29.555 20.9367 29.7328V33.4661C20.9367 33.7328 20.8034 33.9328 20.5369 34.0661C20.2703 34.1995 20.0038 34.1995 19.7373 34.0661C19.4707 33.9328 19.3375 33.7328 19.3375 33.4661V29.7328C19.3375 29.555 19.4263 29.3995 19.604 29.2661C19.7817 29.1328 19.9594 29.0661 20.1371 29.0661ZM20.1371 20.7995C20.4036 20.7995 20.6035 20.8884 20.7368 21.0661C20.87 21.2439 20.9367 21.4217 20.9367 21.5995V25.1995C20.9367 25.4661 20.87 25.6661 20.7368 25.7995C20.6035 25.9328 20.4258 25.9995 20.2037 25.9995C19.9816 25.9995 19.7817 25.9328 19.604 25.7995C19.4263 25.6661 19.3375 25.4661 19.3375 25.1995V21.5995C19.3375 21.4217 19.4263 21.2439 19.604 21.0661C19.7817 20.8884 19.9594 20.7995 20.1371 20.7995ZM25.601 29.0661C25.7787 29.0661 25.9564 29.1328 26.1341 29.2661C26.3118 29.3995 26.4006 29.555 26.4006 29.7328V33.4661C26.4006 33.6439 26.3118 33.8217 26.1341 33.9995C25.9564 34.1773 25.7787 34.2661 25.601 34.2661C25.4233 34.2661 25.2456 34.1773 25.0679 33.9995C24.8903 33.8217 24.8014 33.6439 24.8014 33.4661V29.7328C24.8014 29.555 24.8903 29.3995 25.0679 29.2661C25.2456 29.1328 25.4233 29.0661 25.601 29.0661ZM25.601 20.7995C25.7787 20.7995 25.9564 20.8884 26.1341 21.0661C26.3118 21.2439 26.4006 21.4217 26.4006 21.5995V25.1995C26.4006 25.4661 26.3118 25.6661 26.1341 25.7995C25.9564 25.9328 25.7787 25.9995 25.601 25.9995C25.4233 25.9995 25.2456 25.9328 25.0679 25.7995C24.8903 25.6661 24.8014 25.4661 24.8014 25.1995V21.5995C24.8014 21.4217 24.8903 21.2439 25.0679 21.0661C25.2456 20.8884 25.4233 20.7995 25.601 20.7995ZM25.601 12.6661C25.7787 12.6661 25.9564 12.7328 26.1341 12.8661C26.3118 12.9995 26.4006 13.1995 26.4006 13.4661V17.0661C26.4006 17.3328 26.3118 17.5328 26.1341 17.6661C25.9564 17.7995 25.7787 17.8661 25.601 17.8661C25.4233 17.8661 25.2456 17.7995 25.0679 17.6661C24.8903 17.5328 24.8014 17.3328 24.8014 17.0661V13.4661C24.8014 13.1995 24.8903 12.9995 25.0679 12.8661C25.2456 12.7328 25.4233 12.6661 25.601 12.6661ZM34.6632 9.73281H35.3295C35.5072 9.73281 35.6627 9.79948 35.7959 9.93281C35.9292 10.0661 35.9958 10.2439 35.9958 10.4661C35.9958 10.6884 35.9292 10.8661 35.7959 10.9995C35.6627 11.1328 35.5072 11.1995 35.3295 11.1995H34.6632C34.3966 11.1995 34.1967 11.1328 34.0635 10.9995C33.9302 10.8661 33.8636 10.6884 33.8636 10.4661C33.8636 10.2439 33.9302 10.0661 34.0635 9.93281C34.1967 9.79948 34.3966 9.73281 34.6632 9.73281ZM34.6632 14.1328H35.3295C35.5072 14.1328 35.6627 14.1995 35.7959 14.3328C35.9292 14.4661 35.9958 14.6439 35.9958 14.8661C35.9958 15.0884 35.9292 15.2884 35.7959 15.4661C35.6627 15.6439 35.5072 15.7328 35.3295 15.7328H34.6632C34.3966 15.7328 34.1967 15.6439 34.0635 15.4661C33.9302 15.2884 33.8636 15.0884 33.8636 14.8661C33.8636 14.6439 33.9302 14.4661 34.0635 14.3328C34.1967 14.1995 34.3966 14.1328 34.6632 14.1328ZM34.6632 5.33281H35.3295C35.5072 5.33281 35.6627 5.4217 35.7959 5.59948C35.9292 5.77726 35.9958 5.95503 35.9958 6.13281C35.9958 6.31059 35.9292 6.48837 35.7959 6.66615C35.6627 6.84392 35.5072 6.93281 35.3295 6.93281H34.6632C34.3966 6.93281 34.1967 6.84392 34.0635 6.66615C33.9302 6.48837 33.8636 6.31059 33.8636 6.13281C33.8636 5.95503 33.9302 5.77726 34.0635 5.59948C34.1967 5.4217 34.3966 5.33281 34.6632 5.33281ZM10.9417 18.5328H11.608C11.7857 18.5328 11.9412 18.5995 12.0744 18.7328C12.2077 18.8661 12.2743 19.0439 12.2743 19.2661C12.2743 19.4884 12.2077 19.6661 12.0744 19.7995C11.9412 19.9328 11.7857 19.9995 11.608 19.9995H10.9417C10.6751 19.9995 10.4752 19.9328 10.342 19.7995C10.2087 19.6661 10.1421 19.4884 10.1421 19.2661C10.1421 19.0439 10.2087 18.8661 10.342 18.7328C10.4752 18.5995 10.6751 18.5328 10.9417 18.5328ZM10.9417 22.9328H11.608C11.7857 22.9328 11.9412 22.9995 12.0744 23.1328C12.2077 23.2661 12.2743 23.4439 12.2743 23.6661C12.2743 23.8884 12.2077 24.0661 12.0744 24.1995C11.9412 24.3328 11.7857 24.3995 11.608 24.3995H10.9417C10.6751 24.3995 10.4752 24.3328 10.342 24.1995C10.2087 24.0661 10.1421 23.8884 10.1421 23.6661C10.1421 23.4439 10.2087 23.2661 10.342 23.1328C10.4752 22.9995 10.6751 22.9328 10.9417 22.9328ZM10.9417 14.1328H11.608C11.7857 14.1328 11.9412 14.1995 12.0744 14.3328C12.2077 14.4661 12.2743 14.6439 12.2743 14.8661C12.2743 15.0884 12.2077 15.2884 12.0744 15.4661C11.9412 15.6439 11.7857 15.7328 11.608 15.7328H10.9417C10.5863 15.7328 10.342 15.5995 10.2087 15.3328C10.0754 15.0661 10.0754 14.7995 10.2087 14.5328C10.342 14.2661 10.5863 14.1328 10.9417 14.1328ZM38.9277 21.9995H31.7313V38.5328C31.7313 38.7995 31.6646 38.9995 31.5314 39.1328C31.3981 39.2661 31.1982 39.3328 30.9317 39.3328H14.8064C14.6287 39.3328 14.451 39.2439 14.2733 39.0661C14.0957 38.8884 14.0068 38.7106 14.0068 38.5328V28.9328H7.61001C7.43232 28.9328 7.25463 28.8661 7.07694 28.7328C6.89925 28.5995 6.81041 28.3995 6.81041 28.1328V18.6661C6.81041 18.3995 6.89925 18.1995 7.07694 18.0661C7.25463 17.9328 7.45453 17.8661 7.67664 17.8661C7.89875 17.8661 8.07644 17.9328 8.20971 18.0661C8.34298 18.1995 8.40961 18.3995 8.40961 18.6661V27.4661H14.0068V1.73281H8.40961C8.14308 1.73281 7.94318 1.64392 7.80991 1.46615C7.67664 1.28837 7.61001 1.08837 7.61001 0.866146C7.61001 0.643924 7.67664 0.466146 7.80991 0.332812C7.94318 0.199479 8.14308 0.132812 8.40961 0.132812H36.2624C37.2396 0.132812 38.0615 0.466146 38.7278 1.13281C39.3941 1.79948 39.7273 2.57726 39.7273 3.46615V21.1995C39.7273 21.3773 39.6384 21.555 39.4608 21.7328C39.2831 21.9106 39.1054 21.9995 38.9277 21.9995ZM20.9367 1.73281V7.73281H24.8014V1.73281H20.9367ZM30.1321 1.73281H26.4006V8.53281C26.4006 8.79948 26.3118 8.99948 26.1341 9.13281C25.9564 9.26615 25.7787 9.33281 25.601 9.33281H20.1371C19.9594 9.33281 19.7817 9.26615 19.604 9.13281C19.4263 8.99948 19.3375 8.79948 19.3375 8.53281V1.73281H15.606V37.8661H30.1321V1.73281ZM38.1281 3.46615C38.1281 3.0217 37.9504 2.59948 37.595 2.19948C37.2396 1.79948 36.7954 1.59948 36.2624 1.59948H31.7313V20.3995H38.1281V3.46615ZM9.74228 10.7995C9.74228 12.1328 9.07594 13.4217 7.74328 14.6661C7.03252 15.3773 6.27734 15.955 5.47774 16.3995C5.30005 16.4884 5.07794 16.4884 4.81141 16.3995C4.10065 15.955 3.34548 15.3773 2.54588 14.6661C1.21321 13.4217 0.546875 12.1106 0.546875 10.7328C0.546875 9.35503 0.902253 8.13281 1.61301 7.06615C2.32376 5.99948 3.25663 5.37726 4.41161 5.19948V0.932812C4.41161 0.666146 4.47824 0.466146 4.61151 0.332812C4.74478 0.199479 4.92247 0.132812 5.14458 0.132812C5.36669 0.132812 5.54438 0.199479 5.67764 0.332812C5.81091 0.466146 5.87754 0.666146 5.87754 0.932812V5.19948C7.03252 5.37726 7.96539 5.99948 8.67614 7.06615C9.3869 8.13281 9.74228 9.37726 9.74228 10.7995ZM2.01281 10.7995C2.01281 11.5106 2.41261 12.3106 3.21221 13.1995C3.74528 13.7328 4.41161 14.2661 5.21121 14.7995C5.92197 14.2661 6.54388 13.7328 7.07694 13.1995C7.87654 12.3106 8.27634 11.5106 8.27634 10.7995C8.27634 9.8217 8.05423 8.95503 7.61001 8.19948C7.16579 7.44392 6.5883 6.97726 5.87754 6.79948V8.53281C5.87754 8.79948 5.81091 8.99948 5.67764 9.13281C5.54438 9.26615 5.36669 9.33281 5.14458 9.33281C4.92247 9.33281 4.74478 9.26615 4.61151 9.13281C4.47824 8.99948 4.41161 8.79948 4.41161 8.53281V6.79948C3.70085 6.97726 3.12336 7.44392 2.67914 8.19948C2.23492 8.95503 2.01281 9.8217 2.01281 10.7995Z" fill="var(--fill-0, #17BADF)"/>
</g>
<defs>
<clipPath id="clip0_0_10">
<rect width="40" height="40" fill="white"/>
</clipPath>
</defs>
</svg>
