<svg preserveAspectRatio="none" width="100%" height="100%" overflow="visible" style="display: block;" viewBox="0 0 40 40" fill="none" xmlns="http://www.w3.org/2000/svg">
<g id="Icon" clip-path="url(#clip0_0_8)">
<path id="Vector" d="M39.1882 2.39635H36.7894V15.063C36.7894 15.2408 36.7228 15.4186 36.5895 15.5964C36.4563 15.7741 36.2786 15.863 36.0565 15.863C35.8343 15.863 35.6344 15.7741 35.4568 15.5964C35.2791 15.4186 35.1902 15.2408 35.1902 15.063V2.39635H29.593V8.92969C29.593 9.10747 29.5264 9.28524 29.3931 9.46302C29.2599 9.6408 29.06 9.72969 28.7934 9.72969H23.7293C23.5516 9.72969 23.3739 9.6408 23.1962 9.46302C23.0185 9.28524 22.9297 9.10747 22.9297 8.92969V2.39635H17.4658V34.5297H35.1902V21.9964C35.1902 21.7297 35.2791 21.5297 35.4568 21.3964C35.6344 21.263 35.8343 21.1964 36.0565 21.1964C36.2786 21.1964 36.4563 21.263 36.5895 21.3964C36.7228 21.5297 36.7894 21.7297 36.7894 21.9964V35.3297C36.7894 35.5964 36.7228 35.7964 36.5895 35.9297C36.4563 36.063 36.2564 36.1297 35.9898 36.1297H34.1241V38.3964C34.1241 38.5741 34.0352 38.7297 33.8576 38.863C33.6799 38.9964 33.5022 39.063 33.3245 39.063H19.598C19.4203 39.063 19.2426 38.9964 19.065 38.863C18.8873 38.7297 18.7984 38.5741 18.7984 38.3964V36.1297H16.6662C16.4885 36.1297 16.333 36.063 16.1997 35.9297C16.0665 35.7964 15.9998 35.5964 15.9998 35.3297V23.1964H9.86955V25.5964C9.86955 25.863 9.78071 26.063 9.60302 26.1964C9.42533 26.3297 9.24764 26.3964 9.06995 26.3964H3.60601C3.42832 26.3964 3.25064 26.3297 3.07295 26.1964C2.89526 26.063 2.80641 25.863 2.80641 25.5964V2.39635H0.807413C0.540879 2.39635 0.340979 2.32969 0.207713 2.19635C0.0744459 2.06302 0.0078125 1.88524 0.0078125 1.66302C0.0078125 1.4408 0.0744459 1.26302 0.207713 1.12969C0.340979 0.996354 0.540879 0.929688 0.807413 0.929688H39.1882C39.4548 0.929688 39.6547 0.996354 39.7879 1.12969C39.9212 1.26302 39.9878 1.4408 39.9878 1.66302C39.9878 1.88524 39.9212 2.06302 39.7879 2.19635C39.6547 2.32969 39.4548 2.39635 39.1882 2.39635ZM20.3976 37.5964H32.5249V36.1297H20.3976V37.5964ZM4.40561 24.7964H8.27035V23.1964H4.40561V24.7964ZM11.069 2.39635H9.20322V5.19635H11.069V2.39635ZM15.9998 2.39635H12.6682V5.99635C12.6682 6.17413 12.5793 6.35191 12.4016 6.52969C12.2239 6.70747 12.0462 6.79635 11.8686 6.79635H8.40362C8.22593 6.79635 8.04824 6.70747 7.87055 6.52969C7.69286 6.35191 7.60402 6.17413 7.60402 5.99635V2.39635H4.40561V21.5964H15.9998V2.39635ZM28.1271 2.39635H24.5289V8.12969H28.1271V2.39635ZM36.6562 18.7964C36.4785 19.1519 36.2119 19.2852 35.8566 19.1964C35.5012 19.1075 35.3013 18.8852 35.2569 18.5297C35.2124 18.1741 35.3457 17.9075 35.6567 17.7297C35.9676 17.5519 36.2341 17.5519 36.4563 17.7297C36.6784 17.9075 36.7894 18.0852 36.7894 18.263C36.7894 18.4408 36.745 18.6186 36.6562 18.7964ZM25.062 31.063C25.062 31.2408 24.9731 31.3964 24.7954 31.5297C24.6177 31.663 24.44 31.7297 24.2624 31.7297H20.9307C20.753 31.7297 20.5753 31.663 20.3976 31.5297C20.2199 31.3964 20.1311 31.2408 20.1311 31.063V27.7297C20.1311 27.463 20.2199 27.263 20.3976 27.1297C20.5753 26.9964 20.753 26.9297 20.9307 26.9297H24.2624C24.44 26.9297 24.6177 26.9964 24.7954 27.1297C24.9731 27.263 25.062 27.463 25.062 27.7297V31.063ZM23.4628 28.5297H21.7303V30.263H23.4628V28.5297ZM32.3916 31.063C32.3916 31.2408 32.3028 31.3964 32.1251 31.5297C31.9474 31.663 31.7697 31.7297 31.592 31.7297H28.2604C28.0827 31.7297 27.905 31.663 27.7273 31.5297C27.5496 31.3964 27.4608 31.2408 27.4608 31.063V27.7297C27.4608 27.463 27.5496 27.263 27.7273 27.1297C27.905 26.9964 28.0827 26.9297 28.2604 26.9297H31.592C31.7697 26.9297 31.9474 26.9964 32.1251 27.1297C32.3028 27.263 32.3916 27.463 32.3916 27.7297V31.063ZM30.7924 28.5297H29.06V30.263H30.7924V28.5297ZM25.062 24.1297C25.062 24.3964 24.9731 24.5964 24.7954 24.7297C24.6177 24.863 24.44 24.9297 24.2624 24.9297H20.9307C20.753 24.9297 20.5753 24.863 20.3976 24.7297C20.2199 24.5964 20.1311 24.3964 20.1311 24.1297V20.9297C20.1311 20.663 20.2199 20.463 20.3976 20.3297C20.5753 20.1964 20.753 20.1297 20.9307 20.1297H24.2624C24.44 20.1297 24.6177 20.1964 24.7954 20.3297C24.9731 20.463 25.062 20.663 25.062 20.9297V24.1297ZM23.4628 21.5964H21.7303V23.3297H23.4628V21.5964ZM32.3916 24.1297C32.3916 24.3964 32.3028 24.5964 32.1251 24.7297C31.9474 24.863 31.7697 24.9297 31.592 24.9297H28.2604C28.0827 24.9297 27.905 24.863 27.7273 24.7297C27.5496 24.5964 27.4608 24.3964 27.4608 24.1297V20.9297C27.4608 20.663 27.5496 20.463 27.7273 20.3297C27.905 20.1964 28.0827 20.1297 28.2604 20.1297H31.592C31.7697 20.1297 31.9474 20.1964 32.1251 20.3297C32.3028 20.463 32.3916 20.663 32.3916 20.9297V24.1297ZM30.7924 21.5964H29.06V23.3297H30.7924V21.5964ZM24.2624 18.1297H20.9307C20.753 18.1297 20.5753 18.063 20.3976 17.9297C20.2199 17.7964 20.1311 17.5964 20.1311 17.3297V13.9964C20.1311 13.8186 20.2199 13.6408 20.3976 13.463C20.5753 13.2852 20.753 13.1964 20.9307 13.1964H24.2624C24.44 13.1964 24.6177 13.2852 24.7954 13.463C24.9731 13.6408 25.062 13.8186 25.062 13.9964V17.3297C25.062 17.5964 24.9731 17.7964 24.7954 17.9297C24.6177 18.063 24.44 18.1297 24.2624 18.1297ZM23.4628 14.7964H21.7303V16.5297H23.4628V14.7964ZM31.592 18.1297H28.2604C28.0827 18.1297 27.905 18.063 27.7273 17.9297C27.5496 17.7964 27.4608 17.5964 27.4608 17.3297V13.9964C27.4608 13.8186 27.5496 13.6408 27.7273 13.463C27.905 13.2852 28.0827 13.1964 28.2604 13.1964H31.592C31.7697 13.1964 31.9474 13.2852 32.1251 13.463C32.3028 13.6408 32.3916 13.8186 32.3916 13.9964V17.3297C32.3916 17.5964 32.3028 17.7964 32.1251 17.9297C31.9474 18.063 31.7697 18.1297 31.592 18.1297ZM30.7924 14.7964H29.06V16.5297H30.7924V14.7964ZM6.93768 19.863C6.75999 19.863 6.5823 19.7741 6.40461 19.5964C6.22693 19.4186 6.13808 19.2408 6.13808 19.063V9.19635C6.13808 9.01858 6.22693 8.8408 6.40461 8.66302C6.5823 8.48524 6.75999 8.39635 6.93768 8.39635C7.11537 8.39635 7.29306 8.48524 7.47075 8.66302C7.64844 8.8408 7.73728 9.01858 7.73728 9.19635V19.063C7.73728 19.2408 7.64844 19.4186 7.47075 19.5964C7.29306 19.7741 7.11537 19.863 6.93768 19.863ZM10.1361 8.39635C10.3138 8.39635 10.4915 8.48524 10.6691 8.66302C10.8468 8.8408 10.9357 9.01858 10.9357 9.19635V19.063C10.9357 19.2408 10.8468 19.4186 10.6691 19.5964C10.4915 19.7741 10.3138 19.863 10.1361 19.863C9.95839 19.863 9.78071 19.7741 9.60302 19.5964C9.42533 19.4186 9.33648 19.2408 9.33648 19.063V9.19635C9.33648 9.01858 9.42533 8.8408 9.60302 8.66302C9.78071 8.48524 9.95839 8.39635 10.1361 8.39635ZM13.3345 8.39635C13.5122 8.39635 13.6899 8.48524 13.8676 8.66302C14.0452 8.8408 14.1341 9.01858 14.1341 9.19635V19.063C14.1341 19.2408 14.0452 19.4186 13.8676 19.5964C13.6899 19.7741 13.5122 19.863 13.3345 19.863C13.1568 19.863 12.9791 19.7741 12.8014 19.5964C12.6237 19.4186 12.5349 19.2408 12.5349 19.063V9.19635C12.5349 9.01858 12.6237 8.8408 12.8014 8.66302C12.9791 8.48524 13.1568 8.39635 13.3345 8.39635Z" fill="var(--fill-0, #17BADF)"/>
</g>
<defs>
<clipPath id="clip0_0_8">
<rect width="40" height="40" fill="white"/>
</clipPath>
</defs>
</svg>
