<svg preserveAspectRatio="none" width="100%" height="100%" overflow="visible" style="display: block;" viewBox="0 0 40 40" fill="none" xmlns="http://www.w3.org/2000/svg">
<g id="Icon" clip-path="url(#clip0_0_6)">
<path id="Vector" d="M1.6121 5.86354C1.43441 5.86354 1.25672 5.77465 1.07903 5.59688C0.901344 5.4191 0.8125 5.24132 0.8125 5.06354V1.73021C0.8125 1.46354 0.901344 1.24132 1.07903 1.06354C1.25672 0.885764 1.43441 0.796875 1.6121 0.796875H30.7975C31.064 0.796875 31.2862 0.885764 31.4638 1.06354C31.6415 1.24132 31.686 1.46354 31.5971 1.73021V5.06354C31.5971 5.24132 31.5305 5.4191 31.3972 5.59688C31.2639 5.77465 31.064 5.86354 30.7975 5.86354H1.6121ZM2.54497 4.13021H29.9979V2.53021H2.54497V4.13021ZM28.2654 20.7969C28.0878 20.7969 27.9101 20.7302 27.7324 20.5969C27.5547 20.4635 27.4658 20.2635 27.4658 19.9969V5.86354H4.94377V17.3302C5.03261 17.5969 4.98819 17.7969 4.8105 17.9302C4.63281 18.0635 4.43291 18.1302 4.2108 18.1302C3.98869 18.1302 3.78879 18.0635 3.6111 17.9302C3.43341 17.7969 3.34457 17.5969 3.34457 17.3302V5.06354C3.34457 4.79688 3.43341 4.57465 3.6111 4.39688C3.78879 4.2191 3.96648 4.13021 4.14417 4.13021H28.2654C28.532 4.13021 28.7541 4.2191 28.9318 4.39688C29.1095 4.57465 29.1983 4.79688 29.1983 5.06354V19.9969C29.1983 20.2635 29.1095 20.4635 28.9318 20.5969C28.7541 20.7302 28.532 20.7969 28.2654 20.7969ZM4.94377 29.9969C4.58839 29.9969 4.36628 29.8191 4.27743 29.4635L0.945767 20.2635C0.856922 19.9969 0.879133 19.7524 1.0124 19.5302C1.14567 19.308 1.34557 19.1969 1.6121 19.1969H30.7975C31.1529 19.1969 31.3972 19.308 31.5305 19.5302C31.6637 19.7524 31.686 19.9969 31.5971 20.2635L28.2654 29.4635C28.1766 29.8191 27.9101 29.9969 27.4658 29.9969H23.3346C23.068 29.9969 22.8681 29.908 22.7349 29.7302C22.6016 29.5524 22.535 29.3524 22.535 29.1302C22.535 28.908 22.6016 28.7302 22.7349 28.5969C22.8681 28.4635 23.068 28.3969 23.3346 28.3969H26.9328L29.5981 20.7969H2.8115L5.6101 28.3969H9.6081C9.78579 28.3969 9.96348 28.4635 10.1412 28.5969C10.3189 28.7302 10.4077 28.908 10.4077 29.1302C10.4077 29.3524 10.3189 29.5524 10.1412 29.7302C9.96348 29.908 9.78579 29.9969 9.6081 29.9969H4.94377ZM9.6081 32.9302C9.34157 32.9302 9.14167 32.8413 9.0084 32.6635C8.87514 32.4858 8.8085 32.2635 8.8085 31.9969V24.1302C8.8085 23.9524 8.87514 23.7747 9.0084 23.5969C9.14167 23.4191 9.34157 23.3302 9.6081 23.3302H22.9348C23.1125 23.3302 23.2902 23.4191 23.4678 23.5969C23.6455 23.7747 23.7344 23.9524 23.7344 24.1302V31.9969C23.7344 32.2635 23.6455 32.4858 23.4678 32.6635C23.2902 32.8413 23.0903 32.9302 22.8681 32.9302C22.646 32.9302 22.4683 32.8413 22.3351 32.6635C22.2018 32.4858 22.1352 32.2635 22.1352 31.9969V25.0635H10.4077V31.9969C10.4077 32.2635 10.3189 32.4858 10.1412 32.6635C9.96348 32.8413 9.78579 32.9302 9.6081 32.9302ZM9.2083 39.1969C8.76408 39.1969 8.49755 38.9747 8.4087 38.5302L6.27644 32.2635C6.18759 31.9969 6.23201 31.7524 6.4097 31.5302C6.58739 31.308 6.8095 31.1969 7.07604 31.1969H25.4668C25.7334 31.1969 25.9555 31.308 26.1332 31.5302C26.3109 31.7524 26.3553 31.9969 26.2664 32.2635L24.1342 38.5302C24.0453 38.9747 23.7788 39.1969 23.3346 39.1969H9.2083ZM9.74137 37.4635H22.8015L24.2674 32.9302H8.27544L9.74137 37.4635ZM7.47584 14.9302C7.29815 15.0191 7.12046 14.9747 6.94277 14.7969C6.76508 14.6191 6.67624 14.3969 6.67624 14.1302V5.06354C6.67624 4.79688 6.76508 4.57465 6.94277 4.39688C7.12046 4.2191 7.29815 4.13021 7.47584 4.13021H14.6722C14.8499 4.13021 15.0276 4.2191 15.2053 4.39688C15.383 4.57465 15.4718 4.79688 15.4718 5.06354V14.1302C15.4718 14.3969 15.383 14.5969 15.2053 14.7302C15.0276 14.8635 14.8499 14.9302 14.6722 14.9302H7.47584ZM8.4087 13.3302H13.7394V5.86354H8.4087V13.3302ZM18.0039 14.9302C17.7374 15.0191 17.5153 14.9747 17.3376 14.7969C17.1599 14.6191 17.071 14.3969 17.071 14.1302V8.53021C17.071 8.35243 17.1599 8.17465 17.3376 7.99688C17.5153 7.8191 17.7374 7.73021 18.0039 7.73021H25.8666C26.0443 7.73021 26.222 7.8191 26.3997 7.99688C26.5774 8.17465 26.6662 8.35243 26.6662 8.53021V11.3302C26.6662 11.5969 26.5774 11.7969 26.3997 11.9302C26.222 12.0635 26.0221 12.1302 25.8 12.1302C25.5779 12.1302 25.378 12.0635 25.2003 11.9302C25.0226 11.7969 24.9338 11.5969 24.9338 11.3302V9.33021H18.8035V13.3302H25.8666C26.0443 13.3302 26.222 13.4191 26.3997 13.5969C26.5774 13.7747 26.6662 13.9747 26.6662 14.1969C26.6662 14.4191 26.5774 14.5969 26.3997 14.7302C26.222 14.8635 26.0443 14.9302 25.8666 14.9302H18.0039ZM13.3396 30.5302C13.073 30.6191 12.8731 30.5747 12.7399 30.3969C12.6066 30.2191 12.54 29.9969 12.54 29.7302V26.3969C12.54 26.2191 12.6066 26.0413 12.7399 25.8635C12.8731 25.6858 13.073 25.5969 13.3396 25.5969H19.2033C19.381 25.5969 19.5587 25.6858 19.7364 25.8635C19.9141 26.0413 20.0029 26.2191 20.0029 26.3969V29.7302C20.0029 29.9969 19.9141 30.2191 19.7364 30.3969C19.5587 30.5747 19.381 30.6191 19.2033 30.5302H13.3396ZM14.1392 28.9302H18.4037V27.3302H14.1392V28.9302ZM34.1292 39.1969C32.7965 39.1969 31.6415 38.708 30.6642 37.7302C29.687 36.7524 29.1983 35.5747 29.1983 34.1969C29.1983 32.8191 29.687 31.6413 30.6642 30.6635C31.6415 29.6858 32.8187 29.1969 34.1958 29.1969C35.5729 29.1969 36.7501 29.6858 37.7274 30.6635C38.7047 31.6413 39.1933 32.8191 39.1933 34.1969C39.1933 35.5747 38.7047 36.7524 37.7274 37.7302C36.7501 38.708 35.5507 39.1969 34.1292 39.1969ZM34.1292 37.4635C35.1065 37.4635 35.9061 37.1524 36.528 36.5302C37.1499 35.908 37.4608 35.1302 37.4608 34.1969C37.4608 33.2635 37.1499 32.4635 36.528 31.7969C35.9061 31.1302 35.1287 30.7969 34.1958 30.7969C33.2629 30.7969 32.4633 31.1302 31.797 31.7969C31.1307 32.4635 30.7975 33.2635 30.7975 34.1969C30.7975 35.1302 31.1307 35.908 31.797 36.5302C32.4633 37.1524 33.2407 37.4635 34.1292 37.4635ZM11.2073 9.59688C11.2073 9.33021 11.1185 9.10799 10.9408 8.93021C10.7631 8.75243 10.5632 8.66354 10.3411 8.66354C10.119 8.66354 9.91906 8.75243 9.74137 8.93021C9.56368 9.10799 9.47484 9.33021 9.47484 9.59688C9.47484 9.86354 9.56368 10.0858 9.74137 10.2635C9.91906 10.4413 10.119 10.5302 10.3411 10.5302C10.5632 10.5302 10.7631 10.4413 10.9408 10.2635C11.1185 10.0858 11.2073 9.86354 11.2073 9.59688ZM20.9358 12.5302C20.5804 12.5302 20.3139 12.3969 20.1362 12.1302L19.7364 11.4635C19.5587 11.1969 19.5143 10.9524 19.6031 10.7302C19.692 10.508 19.8252 10.3524 20.0029 10.2635C20.1806 10.1747 20.3805 10.1524 20.6026 10.1969C20.8247 10.2413 21.0246 10.3524 21.2023 10.5302L21.6021 11.3302C21.691 11.508 21.7132 11.708 21.6687 11.9302C21.6243 12.1524 21.5133 12.308 21.3356 12.3969C21.1579 12.4858 21.0246 12.5302 20.9358 12.5302ZM23.3346 12.5302C23.068 12.5302 22.8459 12.3969 22.6682 12.1302L22.2684 11.4635C22.0908 11.1969 22.0463 10.9524 22.1352 10.7302C22.224 10.508 22.3573 10.3524 22.535 10.2635C22.7127 10.1747 22.9126 10.1524 23.1347 10.1969C23.3568 10.2413 23.5123 10.3524 23.6011 10.5302L24.0009 11.3302C24.1786 11.508 24.223 11.708 24.1342 11.9302C24.0453 12.1524 23.9343 12.308 23.801 12.3969C23.6677 12.4858 23.5123 12.5302 23.3346 12.5302Z" fill="var(--fill-0, #17BADF)"/>
</g>
<defs>
<clipPath id="clip0_0_6">
<rect width="40" height="40" fill="white"/>
</clipPath>
</defs>
</svg>
