<svg preserveAspectRatio="none" width="100%" height="100%" overflow="visible" style="display: block;" viewBox="0 0 40 40" fill="none" xmlns="http://www.w3.org/2000/svg">
<g id="Icon">
<path id="Vector" d="M4.80385 17.5969C4.53731 17.5969 4.33741 17.5302 4.20415 17.3969C4.07088 17.2635 4.00425 17.0635 4.00425 16.7969V1.73021C4.00425 1.46354 4.07088 1.24132 4.20415 1.06354C4.33741 0.885764 4.53731 0.796875 4.80385 0.796875H34.7889C34.9665 0.796875 35.1442 0.885764 35.3219 1.06354C35.4996 1.24132 35.5885 1.46354 35.5885 1.73021V13.9969C35.5885 14.2635 35.4996 14.4635 35.3219 14.5969C35.1442 14.7302 34.9443 14.7969 34.7222 14.7969C34.5001 14.7969 34.3224 14.7302 34.1892 14.5969C34.0559 14.4635 33.9893 14.2635 33.9893 13.9969V2.53021H5.60345V16.7969C5.60345 17.0635 5.5146 17.2635 5.33691 17.3969C5.15922 17.5302 4.98154 17.5969 4.80385 17.5969ZM8.13551 14.1302C7.86898 14.1302 7.66908 14.0635 7.53581 13.9302C7.40255 13.7969 7.33591 13.5969 7.33591 13.3302V1.73021C7.33591 1.46354 7.40255 1.24132 7.53581 1.06354C7.66908 0.885764 7.86898 0.796875 8.13551 0.796875H17.3309C17.5086 0.796875 17.6863 0.885764 17.864 1.06354C18.0417 1.24132 18.1305 1.46354 18.1305 1.73021V10.7969C18.1305 10.9747 18.0417 11.1524 17.864 11.3302C17.6863 11.508 17.4864 11.5969 17.2643 11.5969C17.0422 11.5969 16.8423 11.508 16.6646 11.3302C16.4869 11.1524 16.398 10.9747 16.398 10.7969V2.53021H8.93511V12.5302H17.3309C17.5086 12.5302 17.6863 12.5969 17.864 12.7302C18.0417 12.8635 18.1305 13.0635 18.1305 13.3302C18.1305 13.5969 18.0417 13.7969 17.864 13.9302C17.6863 14.0635 17.5086 14.1302 17.3309 14.1302H8.13551ZM21.4622 14.1302C21.1957 14.1302 20.9958 14.0635 20.8625 13.9302C20.7292 13.7969 20.6626 13.5969 20.6626 13.3302V5.86354C20.6626 5.59688 20.7292 5.39688 20.8625 5.26354C20.9958 5.13021 21.1957 5.06354 21.4622 5.06354H31.4572C31.6349 5.06354 31.8126 5.13021 31.9903 5.26354C32.1679 5.39688 32.2568 5.59688 32.2568 5.86354V10.7969C32.2568 10.9747 32.1679 11.1524 31.9903 11.3302C31.8126 11.508 31.6127 11.5969 31.3906 11.5969C31.1684 11.5969 30.9908 11.508 30.8575 11.3302C30.7242 11.1524 30.6576 10.9747 30.6576 10.7969V6.66354H22.2618V12.5302H31.4572C31.6349 12.5302 31.8126 12.5969 31.9903 12.7302C32.1679 12.8635 32.2568 13.0635 32.2568 13.3302C32.2568 13.5969 32.1679 13.7969 31.9903 13.9302C31.8126 14.0635 31.6349 14.1302 31.4572 14.1302H21.4622ZM19.7297 23.0635C18.7524 23.0635 17.9306 22.708 17.2643 21.9969C16.5979 21.2858 16.2648 20.4413 16.2648 19.4635C16.2648 18.4858 16.5979 17.6413 17.2643 16.9302C17.9306 16.2191 18.7524 15.8635 19.7297 15.8635C20.707 15.8635 21.551 16.2191 22.2618 16.9302C22.9725 17.6413 23.3279 18.4858 23.3279 19.4635C23.3279 19.7302 23.2391 19.9302 23.0614 20.0635C22.8837 20.1969 22.6838 20.2635 22.4617 20.2635C22.2396 20.2635 22.0397 20.1969 21.862 20.0635C21.6843 19.9302 21.5955 19.7302 21.5955 19.4635C21.5955 18.9302 21.4178 18.4858 21.0624 18.1302C20.707 17.7747 20.2628 17.5969 19.7297 17.5969C19.1967 17.5969 18.7524 17.7747 18.3971 18.1302C18.0417 18.4858 17.864 18.9302 17.864 19.4635C17.864 19.9969 18.0417 20.4413 18.3971 20.7969C18.7524 21.1524 19.1967 21.3302 19.7297 21.3302C20.2628 21.3302 20.707 21.1524 21.0624 20.7969C21.2401 20.6191 21.44 20.5302 21.6621 20.5302C21.8842 20.5302 22.0841 20.6191 22.2618 20.7969C22.4395 20.9747 22.5283 21.1747 22.5283 21.3969C22.5283 21.6191 22.4395 21.8191 22.2618 21.9969C21.551 22.708 20.707 23.0635 19.7297 23.0635ZM25.1937 11.1969C24.8383 11.1969 24.6162 11.0191 24.5273 10.6635L23.5945 9.33021C23.5056 9.06354 23.4834 8.8191 23.5278 8.59688C23.5722 8.37465 23.7055 8.2191 23.9276 8.13021C24.1497 8.04132 24.3718 8.0191 24.594 8.06354C24.8161 8.10799 24.9715 8.2191 25.0604 8.39688L25.86 9.86354C26.0377 10.0413 26.0821 10.2413 25.9933 10.4635C25.9044 10.6858 25.7934 10.8413 25.6601 10.9302C25.5268 11.0191 25.3713 11.108 25.1937 11.1969ZM28.5253 11.1969C28.1699 11.1969 27.9478 11.0191 27.859 10.6635L26.9261 9.33021C26.8373 9.06354 26.8151 8.8191 26.8595 8.59688C26.9039 8.37465 27.0372 8.2191 27.2593 8.13021C27.4814 8.04132 27.7035 8.0191 27.9256 8.06354C28.1477 8.10799 28.3032 8.2191 28.3921 8.39688L29.1917 9.86354C29.3693 10.0413 29.4138 10.2413 29.3249 10.4635C29.2361 10.6858 29.125 10.8413 28.9918 10.9302C28.8585 11.0191 28.703 11.108 28.5253 11.1969ZM33.4562 39.1969C32.0347 39.1969 30.7909 38.6635 29.7247 37.5969C28.6586 36.5302 28.1255 35.2413 28.1255 33.7302C28.1255 32.2191 28.6586 30.9524 29.7247 29.9302C30.7909 28.908 32.0569 28.3969 33.5228 28.3969C34.9888 28.3969 36.2548 28.908 37.3209 29.9302C38.3871 30.9524 38.9201 32.2191 38.9201 33.7302C38.9201 35.2413 38.3871 36.5302 37.3209 37.5969C36.2548 38.6635 34.9665 39.1969 33.4562 39.1969ZM33.4562 37.4635C34.5223 37.4635 35.433 37.108 36.1882 36.3969C36.9433 35.6858 37.3209 34.7969 37.3209 33.7302C37.3209 32.6635 36.9433 31.7747 36.1882 31.0635C35.433 30.3524 34.5445 29.9969 33.5228 29.9969C32.5011 29.9969 31.6127 30.3524 30.8575 31.0635C30.1023 31.7747 29.7247 32.6635 29.7247 33.7302C29.7247 34.7969 30.1023 35.6858 30.8575 36.3969C31.6127 37.108 32.4789 37.4635 33.4562 37.4635ZM4.93711 32.1302C4.75942 32.1302 4.58174 32.0635 4.40405 31.9302C4.22636 31.7969 4.13751 31.5969 4.13751 31.3302V21.8635C4.13751 21.6858 4.22636 21.508 4.40405 21.3302C4.58174 21.1524 4.78164 21.0635 5.00375 21.0635C5.22586 21.0635 5.40355 21.1524 5.53681 21.3302C5.67008 21.508 5.73671 21.6858 5.73671 21.8635V30.5302H9.06838V25.5969C9.06838 25.3302 9.15723 25.108 9.33491 24.9302C9.5126 24.7524 9.7125 24.6635 9.93461 24.6635C10.1567 24.6635 10.3566 24.7524 10.5343 24.9302C10.712 25.108 10.8008 25.3302 10.8008 25.5969V31.3302C10.8008 31.5969 10.712 31.7969 10.5343 31.9302C10.3566 32.0635 10.1789 32.1302 10.0012 32.1302H4.93711ZM3.33791 35.1969C3.07138 35.1969 2.84927 35.108 2.67158 34.9302C2.49389 34.7524 2.40505 34.5747 2.40505 34.3969V31.3302C2.40505 31.1524 2.49389 30.9747 2.67158 30.7969C2.84927 30.6191 3.07138 30.5302 3.33791 30.5302H11.6004C11.867 30.5302 12.0669 30.6191 12.2001 30.7969C12.3334 30.9747 12.4 31.1524 12.4 31.3302V34.3969C12.4 34.5747 12.3334 34.7524 12.2001 34.9302C12.0669 35.108 11.867 35.1969 11.6004 35.1969H3.33791ZM4.13751 33.4635H10.8008V32.1302H4.13751V33.4635ZM12.0002 7.46354C12.0002 7.19688 11.8892 6.95243 11.6671 6.73021C11.445 6.50799 11.2006 6.39688 10.9341 6.39688C10.6676 6.39688 10.4233 6.50799 10.2011 6.73021C9.97904 6.95243 9.86798 7.2191 9.86798 7.53021C9.86798 7.84132 9.97904 8.08576 10.2011 8.26354C10.4233 8.44132 10.6676 8.53021 10.9341 8.53021C11.2006 8.53021 11.445 8.44132 11.6671 8.26354C11.8892 8.08576 12.0002 7.8191 12.0002 7.46354ZM19.5965 32.2635C19.1522 32.2635 18.7524 32.1302 18.3971 31.8635L1.73871 20.3969C1.38333 20.1302 1.16122 19.7524 1.07238 19.2635C0.983535 18.7747 1.07238 18.3524 1.33891 17.9969L2.27178 16.6635C2.53831 16.308 2.89369 16.0858 3.33791 15.9969C3.78214 15.908 4.22636 15.9969 4.67058 16.2635L19.7297 26.7969L34.9221 16.2635C35.2775 15.9969 35.6995 15.908 36.1882 15.9969C36.6768 16.0858 37.0544 16.308 37.3209 16.6635L38.2538 17.9969C38.5203 18.3524 38.6092 18.7747 38.5203 19.2635C38.4315 19.7524 38.2094 20.1302 37.854 20.3969L21.1957 31.8635C20.7514 32.1302 20.2184 32.2635 19.5965 32.2635ZM19.7297 30.6635C19.9074 30.6635 20.0851 30.6191 20.2628 30.5302L36.7879 18.9302L35.855 17.5969L20.2628 28.3969C19.9074 28.6635 19.5965 28.6635 19.3299 28.3969L3.60445 17.5969L2.67158 18.9302L19.3299 30.5302C19.4188 30.6191 19.552 30.6635 19.7297 30.6635Z" fill="var(--fill-0, #17BADF)"/>
</g>
</svg>
