<svg preserveAspectRatio="none" width="100%" height="100%" overflow="visible" style="display: block;" viewBox="0 0 29 21" fill="none" xmlns="http://www.w3.org/2000/svg">
<path id="Vector" fill-rule="evenodd" clip-rule="evenodd" d="M10.2063 1.20042e-05C10.2481 1.82031e-05 10.2904 2.44814e-05 10.3333 2.44814e-05H18.3333C18.3763 2.44814e-05 18.4186 1.82031e-05 18.4604 1.20042e-05C19.5778 -0.000154015 20.289 -0.000259638 20.9022 0.121718C23.4146 0.62146 25.3786 2.58541 25.8783 5.09779L24.8975 5.29288L25.8783 5.09779C25.9712 5.56454 25.9933 6.08807 25.9985 6.80428C27.5383 7.23906 28.6667 8.65443 28.6667 10.3334V13.5926C28.6667 15.6323 27.603 17.4235 26 18.4418V19.6667C26 20.219 25.5523 20.6667 25 20.6667C24.4477 20.6667 24 20.219 24 19.6667V19.233C23.6521 19.2989 23.293 19.3334 22.9259 19.3334H5.74074C5.37365 19.3334 5.01461 19.2989 4.66667 19.233V19.6667C4.66667 20.219 4.21895 20.6667 3.66667 20.6667C3.11438 20.6667 2.66667 20.219 2.66667 19.6667V18.4418C1.06372 17.4235 0 15.6323 0 13.5926V10.3334C0 8.65443 1.12842 7.23905 2.66821 6.80428C2.6734 6.08807 2.69552 5.56454 2.78836 5.09779C3.2881 2.58541 5.25205 0.62146 7.76443 0.121718C8.37765 -0.000259638 9.08888 -0.000154015 10.2063 1.20042e-05ZM4.6689 6.80535C6.20676 7.24137 7.33333 8.6558 7.33333 10.3334V11.9334C7.33333 11.9702 7.36318 12 7.4 12H21.2667C21.3035 12 21.3333 11.9702 21.3333 11.9334V10.3334C21.3333 8.6558 22.4599 7.24137 23.9978 6.80535C23.9924 6.12609 23.9746 5.77892 23.9167 5.48797C23.5748 3.76897 22.2311 2.42522 20.5121 2.08329C20.1178 2.00487 19.6203 2.00002 18.3333 2.00002H10.3333C9.04632 2.00002 8.54885 2.00487 8.15461 2.08329C6.43562 2.42522 5.09186 3.76897 4.74993 5.48797C4.69206 5.77892 4.67426 6.12609 4.6689 6.80535ZM3.66667 8.66669C2.74619 8.66669 2 9.41288 2 10.3334V13.5926C2 15.6586 3.67479 17.3334 5.74074 17.3334H22.9259C24.9919 17.3334 26.6667 15.6586 26.6667 13.5926V10.3334C26.6667 9.41288 25.9205 8.66669 25 8.66669C24.0795 8.66669 23.3333 9.41288 23.3333 10.3334V11.9334C23.3333 13.0747 22.4081 14 21.2667 14H7.4C6.25861 14 5.33333 13.0747 5.33333 11.9334V10.3334C5.33333 9.41288 4.58714 8.66669 3.66667 8.66669Z" fill="var(--fill-0, #4D4D4D)"/>
</svg>
